solid OpenSCAD_Model
  facet normal 0 0 -1
    outer loop
      vertex -0.0560999 0.0544996 -0.0999994
      vertex -0.0512495 0.0498495 -0.0999994
      vertex -0.0512495 -0.0558996 -0.0999994
    endloop
  endfacet
  facet normal 0 0 -1
    outer loop
      vertex -0.0512495 0.0498495 -0.0999994
      vertex -0.0560999 0.0544996 -0.0999994
      vertex -0.0547495 0.0558996 -0.0999994
    endloop
  endfacet
  facet normal 0 0 -1
    outer loop
      vertex -0.0561495 -0.0607491 -0.0999994
      vertex -0.0560999 0.0544996 -0.0999994
      vertex -0.0512495 -0.0558996 -0.0999994
    endloop
  endfacet
  facet normal 0 0 -1
    outer loop
      vertex -0.166499 -0.0558491 -0.0999994
      vertex -0.0561495 -0.0607491 -0.0999994
      vertex -0.1619 -0.0607491 -0.0999994
    endloop
  endfacet
  facet normal 0 0 -1
    outer loop
      vertex -0.0561495 -0.0607491 -0.0999994
      vertex -0.166499 -0.0558491 -0.0999994
      vertex -0.0560999 0.0544996 -0.0999994
    endloop
  endfacet
  facet normal 0 0 -1
    outer loop
      vertex -0.16785 -0.0572491 -0.0999994
      vertex -0.1619 -0.0607491 -0.0999994
      vertex -0.162999 -0.0618992 -0.0999994
    endloop
  endfacet
  facet normal -0 0 -1
    outer loop
      vertex -0.0560999 0.0544996 -0.0999994
      vertex -0.166499 -0.0558491 -0.0999994
      vertex -0.161949 0.0544996 -0.0999994
    endloop
  endfacet
  facet normal 0 0 -1
    outer loop
      vertex -0.161949 0.0544996 -0.0999994
      vertex -0.166499 -0.0558491 -0.0999994
      vertex -0.166499 0.0498991 -0.0999994
    endloop
  endfacet
  facet normal 0 0 -1
    outer loop
      vertex -0.0547495 0.0558996 -0.0999994
      vertex 0.0604992 0.0558491 -0.0999994
      vertex 0.0555992 0.0509996 -0.0999994
    endloop
  endfacet
  facet normal 0 0 -1
    outer loop
      vertex 0.280499 0.273399 -0.0999994
      vertex 0.5 -0.5 -0.0999994
      vertex 0.280499 -0.279499 -0.0999994
    endloop
  endfacet
  facet normal 0 0 -1
    outer loop
      vertex 0.5 -0.5 -0.0999994
      vertex 0.279249 -0.280749 -0.0999994
      vertex 0.280499 -0.279499 -0.0999994
    endloop
  endfacet
  facet normal 0 0 -1
    outer loop
      vertex 0.5 -0.5 -0.0999994
      vertex 0.17355 -0.280749 -0.0999994
      vertex 0.279249 -0.280749 -0.0999994
    endloop
  endfacet
  facet normal 0 0 -1
    outer loop
      vertex 0.0569992 0.0498991 -0.0999994
      vertex 0.17225 0.0498495 -0.0999994
      vertex 0.17225 -0.279699 -0.0999994
    endloop
  endfacet
  facet normal 0 -0 -1
    outer loop
      vertex 0.0616493 0.0544996 -0.0999994
      vertex 0.17225 0.0498495 -0.0999994
      vertex 0.0569992 0.0498991 -0.0999994
    endloop
  endfacet
  facet normal 0 0 -1
    outer loop
      vertex 0.0569992 0.0498991 -0.0999994
      vertex 0.17225 -0.279699 -0.0999994
      vertex 0.0569992 -0.279349 -0.0999994
    endloop
  endfacet
  facet normal 0 0 -1
    outer loop
      vertex 0.0556498 -0.280749 -0.0999994
      vertex 0.17225 -0.279699 -0.0999994
      vertex 0.17355 -0.280749 -0.0999994
    endloop
  endfacet
  facet normal 0 0 -1
    outer loop
      vertex 0.0556498 -0.280749 -0.0999994
      vertex 0.17355 -0.280749 -0.0999994
      vertex 0.5 -0.5 -0.0999994
    endloop
  endfacet
  facet normal -0 0 -1
    outer loop
      vertex 0.17225 -0.279699 -0.0999994
      vertex 0.0556498 -0.280749 -0.0999994
      vertex 0.0569992 -0.279349 -0.0999994
    endloop
  endfacet
  facet normal 0 0 -1
    outer loop
      vertex -0.5 -0.5 -0.0999994
      vertex 0.0556498 -0.280749 -0.0999994
      vertex 0.5 -0.5 -0.0999994
    endloop
  endfacet
  facet normal 0 0 -1
    outer loop
      vertex -0.27345 -0.0572491 -0.0999994
      vertex -0.162999 -0.0618992 -0.0999994
      vertex -0.162999 -0.27965 -0.0999994
    endloop
  endfacet
  facet normal 0 0 -1
    outer loop
      vertex -0.1619 -0.0607491 -0.0999994
      vertex -0.16785 -0.0572491 -0.0999994
      vertex -0.166499 -0.0558491 -0.0999994
    endloop
  endfacet
  facet normal 0 0 -1
    outer loop
      vertex -0.162999 -0.0618992 -0.0999994
      vertex -0.27345 -0.0572491 -0.0999994
      vertex -0.16785 -0.0572491 -0.0999994
    endloop
  endfacet
  facet normal 0 0 -1
    outer loop
      vertex -0.5 -0.5 -0.0999994
      vertex -0.27345 -0.0572491 -0.0999994
      vertex -0.162999 -0.27965 -0.0999994
    endloop
  endfacet
  facet normal 0 0 -1
    outer loop
      vertex -0.5 0.5 -0.0999994
      vertex -0.27475 -0.0561991 -0.0999994
      vertex -0.5 -0.5 -0.0999994
    endloop
  endfacet
  facet normal -0 0 -1
    outer loop
      vertex -0.27345 -0.0572491 -0.0999994
      vertex -0.5 -0.5 -0.0999994
      vertex -0.27475 -0.0561991 -0.0999994
    endloop
  endfacet
  facet normal -0 0 -1
    outer loop
      vertex -0.16185 -0.280749 -0.0999994
      vertex -0.5 -0.5 -0.0999994
      vertex -0.162999 -0.27965 -0.0999994
    endloop
  endfacet
  facet normal -0 0 -1
    outer loop
      vertex 0.0556498 -0.280749 -0.0999994
      vertex -0.5 -0.5 -0.0999994
      vertex -0.16185 -0.280749 -0.0999994
    endloop
  endfacet
  facet normal 0 0 -1
    outer loop
      vertex 0.5 -0.5 -0.0999994
      vertex 0.280499 0.273399 -0.0999994
      vertex 0.5 0.5 -0.0999994
    endloop
  endfacet
  facet normal 0 0 -1
    outer loop
      vertex 0.279349 0.2745 -0.0999994
      vertex 0.280499 0.273399 -0.0999994
      vertex 0.2799 0.27395 -0.0999994
    endloop
  endfacet
  facet normal 0 0 -1
    outer loop
      vertex 0.280499 0.273399 -0.0999994
      vertex 0.279349 0.2745 -0.0999994
      vertex 0.5 0.5 -0.0999994
    endloop
  endfacet
  facet normal 0 0 -1
    outer loop
      vertex 0.0615997 0.2745 -0.0999994
      vertex 0.5 0.5 -0.0999994
      vertex 0.279349 0.2745 -0.0999994
    endloop
  endfacet
  facet normal 0 0 -1
    outer loop
      vertex -0.0547495 0.0558996 -0.0999994
      vertex 0.0555992 0.0509996 -0.0999994
      vertex -0.0501499 0.0509996 -0.0999994
    endloop
  endfacet
  facet normal 0 0 -1
    outer loop
      vertex -0.0547495 0.0558996 -0.0999994
      vertex -0.0501499 0.0509996 -0.0999994
      vertex -0.0512495 0.0498495 -0.0999994
    endloop
  endfacet
  facet normal 0 0 -1
    outer loop
      vertex 0.0604992 0.0558491 -0.0999994
      vertex -0.0547495 0.0558996 -0.0999994
      vertex 0.0604992 0.27335 -0.0999994
    endloop
  endfacet
  facet normal 0 0 -1
    outer loop
      vertex -0.0547495 0.273199 -0.0999994
      vertex 0.0604992 0.27335 -0.0999994
      vertex -0.0547495 0.0558996 -0.0999994
    endloop
  endfacet
  facet normal 0 0 -1
    outer loop
      vertex -0.0552492 0.273849 -0.0999994
      vertex 0.0604992 0.27335 -0.0999994
      vertex -0.0547495 0.273199 -0.0999994
    endloop
  endfacet
  facet normal 0 0 -1
    outer loop
      vertex -0.0557995 0.2745 -0.0999994
      vertex 0.0604992 0.27335 -0.0999994
      vertex -0.0552492 0.273849 -0.0999994
    endloop
  endfacet
  facet normal 0 0 -1
    outer loop
      vertex 0.0604992 0.27335 -0.0999994
      vertex -0.0557995 0.2745 -0.0999994
      vertex 0.0615997 0.2745 -0.0999994
    endloop
  endfacet
  facet normal 0 0 -1
    outer loop
      vertex 0.0615997 0.2745 -0.0999994
      vertex -0.0557995 0.2745 -0.0999994
      vertex 0.5 0.5 -0.0999994
    endloop
  endfacet
  facet normal 0 0 -1
    outer loop
      vertex -0.5 0.5 -0.0999994
      vertex -0.0557995 0.2745 -0.0999994
      vertex -0.273749 0.2745 -0.0999994
    endloop
  endfacet
  facet normal 0 0 -1
    outer loop
      vertex -0.0557995 0.2745 -0.0999994
      vertex -0.5 0.5 -0.0999994
      vertex 0.5 0.5 -0.0999994
    endloop
  endfacet
  facet normal 0 0 -1
    outer loop
      vertex -0.27475 0.273499 -0.0999994
      vertex -0.5 0.5 -0.0999994
      vertex -0.273749 0.2745 -0.0999994
    endloop
  endfacet
  facet normal 0 0 -1
    outer loop
      vertex -0.27475 -0.0561991 -0.0999994
      vertex -0.5 0.5 -0.0999994
      vertex -0.27475 0.273499 -0.0999994
    endloop
  endfacet
  facet normal 0 0 -1
    outer loop
      vertex 0.17225 0.0498495 -0.0999994
      vertex 0.0616493 0.0544996 -0.0999994
      vertex 0.167649 0.0544996 -0.0999994
    endloop
  endfacet
  facet normal 0 0 1
    outer loop
      vertex -0.0501499 0.0509996 0.0999994
      vertex -0.0560999 0.0544996 0.0999994
      vertex -0.0512495 0.0498495 0.0999994
    endloop
  endfacet
  facet normal 0 0 1
    outer loop
      vertex -0.0512495 0.0498495 0.0999994
      vertex -0.0560999 0.0544996 0.0999994
      vertex -0.0512495 -0.0558996 0.0999994
    endloop
  endfacet
  facet normal 0 0 1
    outer loop
      vertex -0.0560999 0.0544996 0.0999994
      vertex -0.0561495 -0.0607491 0.0999994
      vertex -0.0512495 -0.0558996 0.0999994
    endloop
  endfacet
  facet normal -0 0 1
    outer loop
      vertex -0.166499 -0.0558491 0.0999994
      vertex -0.0561495 -0.0607491 0.0999994
      vertex -0.0560999 0.0544996 0.0999994
    endloop
  endfacet
  facet normal 0 0 1
    outer loop
      vertex -0.166499 -0.0558491 0.0999994
      vertex -0.0560999 0.0544996 0.0999994
      vertex -0.161949 0.0544996 0.0999994
    endloop
  endfacet
  facet normal 0 0 1
    outer loop
      vertex -0.0561495 -0.0607491 0.0999994
      vertex -0.166499 -0.0558491 0.0999994
      vertex -0.1619 -0.0607491 0.0999994
    endloop
  endfacet
  facet normal -0 0 1
    outer loop
      vertex -0.16785 -0.0572491 0.0999994
      vertex -0.1619 -0.0607491 0.0999994
      vertex -0.166499 -0.0558491 0.0999994
    endloop
  endfacet
  facet normal 0 0 1
    outer loop
      vertex -0.166499 -0.0558491 0.0999994
      vertex -0.161949 0.0544996 0.0999994
      vertex -0.166499 0.0498991 0.0999994
    endloop
  endfacet
  facet normal -0 0 1
    outer loop
      vertex 0.0616493 0.0544996 0.0999994
      vertex 0.17225 0.0498495 0.0999994
      vertex 0.167649 0.0544996 0.0999994
    endloop
  endfacet
  facet normal 0 0 1
    outer loop
      vertex 0.5 0.5 0.0999994
      vertex 0.280499 0.273399 0.0999994
      vertex 0.5 -0.5 0.0999994
    endloop
  endfacet
  facet normal -0 0 1
    outer loop
      vertex 0.279349 0.2745 0.0999994
      vertex 0.280499 0.273399 0.0999994
      vertex 0.5 0.5 0.0999994
    endloop
  endfacet
  facet normal 0 0 1
    outer loop
      vertex 0.280499 0.273399 0.0999994
      vertex 0.279349 0.2745 0.0999994
      vertex 0.2799 0.27395 0.0999994
    endloop
  endfacet
  facet normal 0 0 1
    outer loop
      vertex 0.5 0.5 0.0999994
      vertex 0.0615997 0.2745 0.0999994
      vertex 0.279349 0.2745 0.0999994
    endloop
  endfacet
  facet normal -0 0 1
    outer loop
      vertex -0.0547495 0.273199 0.0999994
      vertex 0.0604992 0.0558491 0.0999994
      vertex 0.0604992 0.27335 0.0999994
    endloop
  endfacet
  facet normal 0 0 1
    outer loop
      vertex -0.0547495 0.0558996 0.0999994
      vertex 0.0555992 0.0509996 0.0999994
      vertex 0.0604992 0.0558491 0.0999994
    endloop
  endfacet
  facet normal -0 0 1
    outer loop
      vertex -0.0547495 0.0558996 0.0999994
      vertex 0.0604992 0.0558491 0.0999994
      vertex -0.0547495 0.273199 0.0999994
    endloop
  endfacet
  facet normal -0 0 1
    outer loop
      vertex -0.0560999 0.0544996 0.0999994
      vertex -0.0501499 0.0509996 0.0999994
      vertex -0.0547495 0.0558996 0.0999994
    endloop
  endfacet
  facet normal 0 0 1
    outer loop
      vertex 0.0555992 0.0509996 0.0999994
      vertex -0.0547495 0.0558996 0.0999994
      vertex -0.0501499 0.0509996 0.0999994
    endloop
  endfacet
  facet normal -0 0 1
    outer loop
      vertex -0.0557995 0.2745 0.0999994
      vertex 0.0604992 0.27335 0.0999994
      vertex 0.0615997 0.2745 0.0999994
    endloop
  endfacet
  facet normal 0 0 1
    outer loop
      vertex -0.0557995 0.2745 0.0999994
      vertex 0.0615997 0.2745 0.0999994
      vertex 0.5 0.5 0.0999994
    endloop
  endfacet
  facet normal 0 0 1
    outer loop
      vertex 0.0604992 0.27335 0.0999994
      vertex -0.0552492 0.273849 0.0999994
      vertex -0.0547495 0.273199 0.0999994
    endloop
  endfacet
  facet normal 0 0 1
    outer loop
      vertex 0.0604992 0.27335 0.0999994
      vertex -0.0557995 0.2745 0.0999994
      vertex -0.0552492 0.273849 0.0999994
    endloop
  endfacet
  facet normal -0 0 1
    outer loop
      vertex -0.5 0.5 0.0999994
      vertex -0.0557995 0.2745 0.0999994
      vertex 0.5 0.5 0.0999994
    endloop
  endfacet
  facet normal 0 0 1
    outer loop
      vertex -0.27475 0.273499 0.0999994
      vertex -0.5 0.5 0.0999994
      vertex -0.27475 -0.0561991 0.0999994
    endloop
  endfacet
  facet normal 0 0 1
    outer loop
      vertex -0.273749 0.2745 0.0999994
      vertex -0.5 0.5 0.0999994
      vertex -0.27475 0.273499 0.0999994
    endloop
  endfacet
  facet normal 0 0 1
    outer loop
      vertex -0.0557995 0.2745 0.0999994
      vertex -0.5 0.5 0.0999994
      vertex -0.273749 0.2745 0.0999994
    endloop
  endfacet
  facet normal -0 0 1
    outer loop
      vertex 0.280499 -0.279499 0.0999994
      vertex 0.5 -0.5 0.0999994
      vertex 0.280499 0.273399 0.0999994
    endloop
  endfacet
  facet normal -0 0 1
    outer loop
      vertex 0.279249 -0.280749 0.0999994
      vertex 0.5 -0.5 0.0999994
      vertex 0.280499 -0.279499 0.0999994
    endloop
  endfacet
  facet normal -0 0 1
    outer loop
      vertex 0.17355 -0.280749 0.0999994
      vertex 0.5 -0.5 0.0999994
      vertex 0.279249 -0.280749 0.0999994
    endloop
  endfacet
  facet normal 0 0 1
    outer loop
      vertex 0.17225 0.0498495 0.0999994
      vertex 0.0616493 0.0544996 0.0999994
      vertex 0.0569992 0.0498991 0.0999994
    endloop
  endfacet
  facet normal 0 0 1
    outer loop
      vertex 0.17225 0.0498495 0.0999994
      vertex 0.0569992 0.0498991 0.0999994
      vertex 0.17225 -0.279699 0.0999994
    endloop
  endfacet
  facet normal -0 0 1
    outer loop
      vertex 0.0569992 -0.279349 0.0999994
      vertex 0.17225 -0.279699 0.0999994
      vertex 0.0569992 0.0498991 0.0999994
    endloop
  endfacet
  facet normal 0 0 1
    outer loop
      vertex 0.0556498 -0.280749 0.0999994
      vertex 0.17225 -0.279699 0.0999994
      vertex 0.0569992 -0.279349 0.0999994
    endloop
  endfacet
  facet normal 0 0 1
    outer loop
      vertex 0.17225 -0.279699 0.0999994
      vertex 0.0556498 -0.280749 0.0999994
      vertex 0.17355 -0.280749 0.0999994
    endloop
  endfacet
  facet normal 0 0 1
    outer loop
      vertex 0.17355 -0.280749 0.0999994
      vertex 0.0556498 -0.280749 0.0999994
      vertex 0.5 -0.5 0.0999994
    endloop
  endfacet
  facet normal 0 0 1
    outer loop
      vertex -0.5 -0.5 0.0999994
      vertex 0.0556498 -0.280749 0.0999994
      vertex -0.16185 -0.280749 0.0999994
    endloop
  endfacet
  facet normal 0 0 1
    outer loop
      vertex -0.1619 -0.0607491 0.0999994
      vertex -0.16785 -0.0572491 0.0999994
      vertex -0.162999 -0.0618992 0.0999994
    endloop
  endfacet
  facet normal -0 0 1
    outer loop
      vertex -0.27345 -0.0572491 0.0999994
      vertex -0.162999 -0.0618992 0.0999994
      vertex -0.16785 -0.0572491 0.0999994
    endloop
  endfacet
  facet normal 0 0 1
    outer loop
      vertex -0.162999 -0.0618992 0.0999994
      vertex -0.27345 -0.0572491 0.0999994
      vertex -0.162999 -0.27965 0.0999994
    endloop
  endfacet
  facet normal 0 0 1
    outer loop
      vertex -0.5 -0.5 0.0999994
      vertex -0.27345 -0.0572491 0.0999994
      vertex -0.27475 -0.0561991 0.0999994
    endloop
  endfacet
  facet normal 0 0 1
    outer loop
      vertex 0.0556498 -0.280749 0.0999994
      vertex -0.5 -0.5 0.0999994
      vertex 0.5 -0.5 0.0999994
    endloop
  endfacet
  facet normal 0 0 1
    outer loop
      vertex -0.162999 -0.27965 0.0999994
      vertex -0.5 -0.5 0.0999994
      vertex -0.16185 -0.280749 0.0999994
    endloop
  endfacet
  facet normal 0 0 1
    outer loop
      vertex -0.27345 -0.0572491 0.0999994
      vertex -0.5 -0.5 0.0999994
      vertex -0.162999 -0.27965 0.0999994
    endloop
  endfacet
  facet normal 0 0 1
    outer loop
      vertex -0.5 -0.5 0.0999994
      vertex -0.27475 -0.0561991 0.0999994
      vertex -0.5 0.5 0.0999994
    endloop
  endfacet
  facet normal 0 1 -0
    outer loop
      vertex 0.5 0.5 -0.0999994
      vertex -0.5 0.5 0.0999994
      vertex 0.5 0.5 0.0999994
    endloop
  endfacet
  facet normal 0 1 0
    outer loop
      vertex -0.5 0.5 0.0999994
      vertex 0.5 0.5 -0.0999994
      vertex -0.5 0.5 -0.0999994
    endloop
  endfacet
  facet normal -1 0 0
    outer loop
      vertex -0.5 -0.5 -0.0999994
      vertex -0.5 0.5 0.0999994
      vertex -0.5 0.5 -0.0999994
    endloop
  endfacet
  facet normal -1 -0 0
    outer loop
      vertex -0.5 0.5 0.0999994
      vertex -0.5 -0.5 -0.0999994
      vertex -0.5 -0.5 0.0999994
    endloop
  endfacet
  facet normal 0 -1 0
    outer loop
      vertex -0.5 -0.5 -0.0999994
      vertex 0.5 -0.5 0.0999994
      vertex -0.5 -0.5 0.0999994
    endloop
  endfacet
  facet normal 0 -1 -0
    outer loop
      vertex 0.5 -0.5 0.0999994
      vertex -0.5 -0.5 -0.0999994
      vertex 0.5 -0.5 -0.0999994
    endloop
  endfacet
  facet normal 1 -0 0
    outer loop
      vertex 0.5 -0.5 0.0999994
      vertex 0.5 0.5 -0.0999994
      vertex 0.5 0.5 0.0999994
    endloop
  endfacet
  facet normal 1 0 0
    outer loop
      vertex 0.5 0.5 -0.0999994
      vertex 0.5 -0.5 0.0999994
      vertex 0.5 -0.5 -0.0999994
    endloop
  endfacet
  facet normal 0.628377 0.777909 -0
    outer loop
      vertex -0.27345 -0.0572491 -0.0999994
      vertex -0.27475 -0.0561991 0.0999994
      vertex -0.27345 -0.0572491 0.0999994
    endloop
  endfacet
  facet normal 0.628377 0.777909 0
    outer loop
      vertex -0.27475 -0.0561991 0.0999994
      vertex -0.27345 -0.0572491 -0.0999994
      vertex -0.27475 -0.0561991 -0.0999994
    endloop
  endfacet
  facet normal 1 -0 0
    outer loop
      vertex -0.27475 -0.0561991 0.0999994
      vertex -0.27475 0.273499 -0.0999994
      vertex -0.27475 0.273499 0.0999994
    endloop
  endfacet
  facet normal 1 0 0
    outer loop
      vertex -0.27475 0.273499 -0.0999994
      vertex -0.27475 -0.0561991 0.0999994
      vertex -0.27475 -0.0561991 -0.0999994
    endloop
  endfacet
  facet normal 0.707107 -0.707107 0
    outer loop
      vertex -0.27475 0.273499 0.0999994
      vertex -0.273749 0.2745 -0.0999994
      vertex -0.273749 0.2745 0.0999994
    endloop
  endfacet
  facet normal 0.707107 -0.707107 0
    outer loop
      vertex -0.273749 0.2745 -0.0999994
      vertex -0.27475 0.273499 0.0999994
      vertex -0.27475 0.273499 -0.0999994
    endloop
  endfacet
  facet normal 0 -1 0
    outer loop
      vertex -0.273749 0.2745 -0.0999994
      vertex -0.0557995 0.2745 0.0999994
      vertex -0.273749 0.2745 0.0999994
    endloop
  endfacet
  facet normal 0 -1 -0
    outer loop
      vertex -0.0557995 0.2745 0.0999994
      vertex -0.273749 0.2745 -0.0999994
      vertex -0.0557995 0.2745 -0.0999994
    endloop
  endfacet
  facet normal -0.763429 -0.645892 0
    outer loop
      vertex -0.0552492 0.273849 -0.0999994
      vertex -0.0557995 0.2745 0.0999994
      vertex -0.0557995 0.2745 -0.0999994
    endloop
  endfacet
  facet normal -0.763429 -0.645892 0
    outer loop
      vertex -0.0557995 0.2745 0.0999994
      vertex -0.0552492 0.273849 -0.0999994
      vertex -0.0552492 0.273849 0.0999994
    endloop
  endfacet
  facet normal -0.79297 -0.609261 0
    outer loop
      vertex -0.0547495 0.273199 -0.0999994
      vertex -0.0552492 0.273849 0.0999994
      vertex -0.0552492 0.273849 -0.0999994
    endloop
  endfacet
  facet normal -0.79297 -0.609261 0
    outer loop
      vertex -0.0552492 0.273849 0.0999994
      vertex -0.0547495 0.273199 -0.0999994
      vertex -0.0547495 0.273199 0.0999994
    endloop
  endfacet
  facet normal -1 0 0
    outer loop
      vertex -0.0547495 0.0558996 -0.0999994
      vertex -0.0547495 0.273199 0.0999994
      vertex -0.0547495 0.273199 -0.0999994
    endloop
  endfacet
  facet normal -1 -0 0
    outer loop
      vertex -0.0547495 0.273199 0.0999994
      vertex -0.0547495 0.0558996 -0.0999994
      vertex -0.0547495 0.0558996 0.0999994
    endloop
  endfacet
  facet normal -0.719739 0.694244 0
    outer loop
      vertex -0.0560999 0.0544996 -0.0999994
      vertex -0.0547495 0.0558996 0.0999994
      vertex -0.0547495 0.0558996 -0.0999994
    endloop
  endfacet
  facet normal -0.719739 0.694244 0
    outer loop
      vertex -0.0547495 0.0558996 0.0999994
      vertex -0.0560999 0.0544996 -0.0999994
      vertex -0.0560999 0.0544996 0.0999994
    endloop
  endfacet
  facet normal 0 1 -0
    outer loop
      vertex -0.0560999 0.0544996 -0.0999994
      vertex -0.161949 0.0544996 0.0999994
      vertex -0.0560999 0.0544996 0.0999994
    endloop
  endfacet
  facet normal 0 1 0
    outer loop
      vertex -0.161949 0.0544996 0.0999994
      vertex -0.0560999 0.0544996 -0.0999994
      vertex -0.161949 0.0544996 -0.0999994
    endloop
  endfacet
  facet normal -0.711002 0.70319 0
    outer loop
      vertex -0.166499 0.0498991 -0.0999994
      vertex -0.161949 0.0544996 0.0999994
      vertex -0.161949 0.0544996 -0.0999994
    endloop
  endfacet
  facet normal -0.711002 0.70319 0
    outer loop
      vertex -0.161949 0.0544996 0.0999994
      vertex -0.166499 0.0498991 -0.0999994
      vertex -0.166499 0.0498991 0.0999994
    endloop
  endfacet
  facet normal -1 0 0
    outer loop
      vertex -0.166499 -0.0558491 -0.0999994
      vertex -0.166499 0.0498991 0.0999994
      vertex -0.166499 0.0498991 -0.0999994
    endloop
  endfacet
  facet normal -1 -0 0
    outer loop
      vertex -0.166499 0.0498991 0.0999994
      vertex -0.166499 -0.0558491 -0.0999994
      vertex -0.166499 -0.0558491 0.0999994
    endloop
  endfacet
  facet normal -0.719739 0.694244 0
    outer loop
      vertex -0.16785 -0.0572491 -0.0999994
      vertex -0.166499 -0.0558491 0.0999994
      vertex -0.166499 -0.0558491 -0.0999994
    endloop
  endfacet
  facet normal -0.719739 0.694244 0
    outer loop
      vertex -0.166499 -0.0558491 0.0999994
      vertex -0.16785 -0.0572491 -0.0999994
      vertex -0.16785 -0.0572491 0.0999994
    endloop
  endfacet
  facet normal 0 1 -0
    outer loop
      vertex -0.16785 -0.0572491 -0.0999994
      vertex -0.27345 -0.0572491 0.0999994
      vertex -0.16785 -0.0572491 0.0999994
    endloop
  endfacet
  facet normal 0 1 0
    outer loop
      vertex -0.27345 -0.0572491 0.0999994
      vertex -0.16785 -0.0572491 -0.0999994
      vertex -0.27345 -0.0572491 -0.0999994
    endloop
  endfacet
  facet normal 0.691345 0.722525 -0
    outer loop
      vertex -0.16185 -0.280749 -0.0999994
      vertex -0.162999 -0.27965 0.0999994
      vertex -0.16185 -0.280749 0.0999994
    endloop
  endfacet
  facet normal 0.691345 0.722525 0
    outer loop
      vertex -0.162999 -0.27965 0.0999994
      vertex -0.16185 -0.280749 -0.0999994
      vertex -0.162999 -0.27965 -0.0999994
    endloop
  endfacet
  facet normal 1 -0 0
    outer loop
      vertex -0.162999 -0.27965 0.0999994
      vertex -0.162999 -0.0618992 -0.0999994
      vertex -0.162999 -0.0618992 0.0999994
    endloop
  endfacet
  facet normal 1 0 0
    outer loop
      vertex -0.162999 -0.0618992 -0.0999994
      vertex -0.162999 -0.27965 0.0999994
      vertex -0.162999 -0.27965 -0.0999994
    endloop
  endfacet
  facet normal 0.722811 -0.691046 0
    outer loop
      vertex -0.162999 -0.0618992 0.0999994
      vertex -0.1619 -0.0607491 -0.0999994
      vertex -0.1619 -0.0607491 0.0999994
    endloop
  endfacet
  facet normal 0.722811 -0.691046 0
    outer loop
      vertex -0.1619 -0.0607491 -0.0999994
      vertex -0.162999 -0.0618992 0.0999994
      vertex -0.162999 -0.0618992 -0.0999994
    endloop
  endfacet
  facet normal 0 -1 0
    outer loop
      vertex -0.1619 -0.0607491 -0.0999994
      vertex -0.0561495 -0.0607491 0.0999994
      vertex -0.1619 -0.0607491 0.0999994
    endloop
  endfacet
  facet normal 0 -1 -0
    outer loop
      vertex -0.0561495 -0.0607491 0.0999994
      vertex -0.1619 -0.0607491 -0.0999994
      vertex -0.0561495 -0.0607491 -0.0999994
    endloop
  endfacet
  facet normal 0.703431 -0.710763 0
    outer loop
      vertex -0.0561495 -0.0607491 -0.0999994
      vertex -0.0512495 -0.0558996 0.0999994
      vertex -0.0561495 -0.0607491 0.0999994
    endloop
  endfacet
  facet normal 0.703431 -0.710763 0
    outer loop
      vertex -0.0512495 -0.0558996 0.0999994
      vertex -0.0561495 -0.0607491 -0.0999994
      vertex -0.0512495 -0.0558996 -0.0999994
    endloop
  endfacet
  facet normal 1 -0 0
    outer loop
      vertex -0.0512495 -0.0558996 0.0999994
      vertex -0.0512495 0.0498495 -0.0999994
      vertex -0.0512495 0.0498495 0.0999994
    endloop
  endfacet
  facet normal 1 0 0
    outer loop
      vertex -0.0512495 0.0498495 -0.0999994
      vertex -0.0512495 -0.0558996 0.0999994
      vertex -0.0512495 -0.0558996 -0.0999994
    endloop
  endfacet
  facet normal 0.722811 -0.691046 0
    outer loop
      vertex -0.0512495 0.0498495 0.0999994
      vertex -0.0501499 0.0509996 -0.0999994
      vertex -0.0501499 0.0509996 0.0999994
    endloop
  endfacet
  facet normal 0.722811 -0.691046 0
    outer loop
      vertex -0.0501499 0.0509996 -0.0999994
      vertex -0.0512495 0.0498495 0.0999994
      vertex -0.0512495 0.0498495 -0.0999994
    endloop
  endfacet
  facet normal 0 -1 0
    outer loop
      vertex -0.0501499 0.0509996 -0.0999994
      vertex 0.0555992 0.0509996 0.0999994
      vertex -0.0501499 0.0509996 0.0999994
    endloop
  endfacet
  facet normal 0 -1 -0
    outer loop
      vertex 0.0555992 0.0509996 0.0999994
      vertex -0.0501499 0.0509996 -0.0999994
      vertex 0.0555992 0.0509996 -0.0999994
    endloop
  endfacet
  facet normal 0.703431 -0.710763 0
    outer loop
      vertex 0.0555992 0.0509996 -0.0999994
      vertex 0.0604992 0.0558491 0.0999994
      vertex 0.0555992 0.0509996 0.0999994
    endloop
  endfacet
  facet normal 0.703431 -0.710763 0
    outer loop
      vertex 0.0604992 0.0558491 0.0999994
      vertex 0.0555992 0.0509996 -0.0999994
      vertex 0.0604992 0.0558491 -0.0999994
    endloop
  endfacet
  facet normal 1 -0 0
    outer loop
      vertex 0.0604992 0.0558491 0.0999994
      vertex 0.0604992 0.27335 -0.0999994
      vertex 0.0604992 0.27335 0.0999994
    endloop
  endfacet
  facet normal 1 0 0
    outer loop
      vertex 0.0604992 0.27335 -0.0999994
      vertex 0.0604992 0.0558491 0.0999994
      vertex 0.0604992 0.0558491 -0.0999994
    endloop
  endfacet
  facet normal 0.722512 -0.691359 0
    outer loop
      vertex 0.0604992 0.27335 0.0999994
      vertex 0.0615997 0.2745 -0.0999994
      vertex 0.0615997 0.2745 0.0999994
    endloop
  endfacet
  facet normal 0.722512 -0.691359 0
    outer loop
      vertex 0.0615997 0.2745 -0.0999994
      vertex 0.0604992 0.27335 0.0999994
      vertex 0.0604992 0.27335 -0.0999994
    endloop
  endfacet
  facet normal 0 -1 0
    outer loop
      vertex 0.0615997 0.2745 -0.0999994
      vertex 0.279349 0.2745 0.0999994
      vertex 0.0615997 0.2745 0.0999994
    endloop
  endfacet
  facet normal 0 -1 -0
    outer loop
      vertex 0.279349 0.2745 0.0999994
      vertex 0.0615997 0.2745 -0.0999994
      vertex 0.279349 0.2745 -0.0999994
    endloop
  endfacet
  facet normal -0.707107 -0.707107 0
    outer loop
      vertex 0.2799 0.27395 -0.0999994
      vertex 0.279349 0.2745 0.0999994
      vertex 0.279349 0.2745 -0.0999994
    endloop
  endfacet
  facet normal -0.707107 -0.707107 0
    outer loop
      vertex 0.279349 0.2745 0.0999994
      vertex 0.2799 0.27395 -0.0999994
      vertex 0.2799 0.27395 0.0999994
    endloop
  endfacet
  facet normal -0.67599 -0.736911 0
    outer loop
      vertex 0.2799 0.27395 -0.0999994
      vertex 0.280499 0.273399 0.0999994
      vertex 0.2799 0.27395 0.0999994
    endloop
  endfacet
  facet normal -0.67599 -0.736911 -0
    outer loop
      vertex 0.280499 0.273399 0.0999994
      vertex 0.2799 0.27395 -0.0999994
      vertex 0.280499 0.273399 -0.0999994
    endloop
  endfacet
  facet normal -1 0 0
    outer loop
      vertex 0.280499 -0.279499 -0.0999994
      vertex 0.280499 0.273399 0.0999994
      vertex 0.280499 0.273399 -0.0999994
    endloop
  endfacet
  facet normal -1 -0 0
    outer loop
      vertex 0.280499 0.273399 0.0999994
      vertex 0.280499 -0.279499 -0.0999994
      vertex 0.280499 -0.279499 0.0999994
    endloop
  endfacet
  facet normal -0.707107 0.707107 0
    outer loop
      vertex 0.279249 -0.280749 -0.0999994
      vertex 0.280499 -0.279499 0.0999994
      vertex 0.280499 -0.279499 -0.0999994
    endloop
  endfacet
  facet normal -0.707107 0.707107 0
    outer loop
      vertex 0.280499 -0.279499 0.0999994
      vertex 0.279249 -0.280749 -0.0999994
      vertex 0.279249 -0.280749 0.0999994
    endloop
  endfacet
  facet normal 0 1 -0
    outer loop
      vertex 0.279249 -0.280749 -0.0999994
      vertex 0.17355 -0.280749 0.0999994
      vertex 0.279249 -0.280749 0.0999994
    endloop
  endfacet
  facet normal 0 1 0
    outer loop
      vertex 0.17355 -0.280749 0.0999994
      vertex 0.279249 -0.280749 -0.0999994
      vertex 0.17355 -0.280749 -0.0999994
    endloop
  endfacet
  facet normal 0.628377 0.777909 -0
    outer loop
      vertex 0.17355 -0.280749 -0.0999994
      vertex 0.17225 -0.279699 0.0999994
      vertex 0.17355 -0.280749 0.0999994
    endloop
  endfacet
  facet normal 0.628377 0.777909 0
    outer loop
      vertex 0.17225 -0.279699 0.0999994
      vertex 0.17355 -0.280749 -0.0999994
      vertex 0.17225 -0.279699 -0.0999994
    endloop
  endfacet
  facet normal 1 -0 0
    outer loop
      vertex 0.17225 -0.279699 0.0999994
      vertex 0.17225 0.0498495 -0.0999994
      vertex 0.17225 0.0498495 0.0999994
    endloop
  endfacet
  facet normal 1 0 0
    outer loop
      vertex 0.17225 0.0498495 -0.0999994
      vertex 0.17225 -0.279699 0.0999994
      vertex 0.17225 -0.279699 -0.0999994
    endloop
  endfacet
  facet normal 0.710887 0.703306 0
    outer loop
      vertex 0.17225 0.0498495 0.0999994
      vertex 0.167649 0.0544996 -0.0999994
      vertex 0.167649 0.0544996 0.0999994
    endloop
  endfacet
  facet normal 0.710887 0.703306 0
    outer loop
      vertex 0.167649 0.0544996 -0.0999994
      vertex 0.17225 0.0498495 0.0999994
      vertex 0.17225 0.0498495 -0.0999994
    endloop
  endfacet
  facet normal 0 1 -0
    outer loop
      vertex 0.167649 0.0544996 -0.0999994
      vertex 0.0616493 0.0544996 0.0999994
      vertex 0.167649 0.0544996 0.0999994
    endloop
  endfacet
  facet normal 0 1 0
    outer loop
      vertex 0.0616493 0.0544996 0.0999994
      vertex 0.167649 0.0544996 -0.0999994
      vertex 0.0616493 0.0544996 -0.0999994
    endloop
  endfacet
  facet normal -0.703306 0.710887 0
    outer loop
      vertex 0.0616493 0.0544996 -0.0999994
      vertex 0.0569992 0.0498991 0.0999994
      vertex 0.0616493 0.0544996 0.0999994
    endloop
  endfacet
  facet normal -0.703306 0.710887 0
    outer loop
      vertex 0.0569992 0.0498991 0.0999994
      vertex 0.0616493 0.0544996 -0.0999994
      vertex 0.0569992 0.0498991 -0.0999994
    endloop
  endfacet
  facet normal -1 0 0
    outer loop
      vertex 0.0569992 -0.279349 -0.0999994
      vertex 0.0569992 0.0498991 0.0999994
      vertex 0.0569992 0.0498991 -0.0999994
    endloop
  endfacet
  facet normal -1 -0 0
    outer loop
      vertex 0.0569992 0.0498991 0.0999994
      vertex 0.0569992 -0.279349 -0.0999994
      vertex 0.0569992 -0.279349 0.0999994
    endloop
  endfacet
  facet normal -0.719984 0.69399 0
    outer loop
      vertex 0.0556498 -0.280749 -0.0999994
      vertex 0.0569992 -0.279349 0.0999994
      vertex 0.0569992 -0.279349 -0.0999994
    endloop
  endfacet
  facet normal -0.719984 0.69399 0
    outer loop
      vertex 0.0569992 -0.279349 0.0999994
      vertex 0.0556498 -0.280749 -0.0999994
      vertex 0.0556498 -0.280749 0.0999994
    endloop
  endfacet
  facet normal 0 1 -0
    outer loop
      vertex 0.0556498 -0.280749 -0.0999994
      vertex -0.16185 -0.280749 0.0999994
      vertex 0.0556498 -0.280749 0.0999994
    endloop
  endfacet
  facet normal 0 1 0
    outer loop
      vertex -0.16185 -0.280749 0.0999994
      vertex 0.0556498 -0.280749 -0.0999994
      vertex -0.16185 -0.280749 -0.0999994
    endloop
  endfacet
endsolid OpenSCAD_Model
